<mxfile host="app.diagrams.net" modified="2020-11-04T21:28:34.928Z" agent="5.0 (Windows NT 10.0; Win64; x64) AppleWebKit/537.36 (KHTML, like Gecko) Chrome/86.0.4240.183 Safari/537.36" etag="Pcd9WdRw_GxzJEKL4kwl" version="13.8.9-1" type="github">
  <diagram id="6f0kg8ixy_AC8h1jNaJ4" name="Page-1">
    <mxGraphModel dx="868" dy="450" grid="1" gridSize="10" guides="1" tooltips="1" connect="1" arrows="1" fold="1" page="1" pageScale="1" pageWidth="827" pageHeight="1169" math="0" shadow="0">
      <root>
        <mxCell id="0" />
        <mxCell id="1" parent="0" />
        <mxCell id="8GNqSrrgOyK67xT2r_T6-4" style="edgeStyle=orthogonalEdgeStyle;rounded=0;orthogonalLoop=1;jettySize=auto;html=1;exitX=0.5;exitY=1;exitDx=0;exitDy=0;entryX=0.5;entryY=0;entryDx=0;entryDy=0;" edge="1" parent="1" source="8GNqSrrgOyK67xT2r_T6-1" target="8GNqSrrgOyK67xT2r_T6-2">
          <mxGeometry relative="1" as="geometry" />
        </mxCell>
        <mxCell id="8GNqSrrgOyK67xT2r_T6-1" value="Inicio" style="ellipse;whiteSpace=wrap;html=1;" vertex="1" parent="1">
          <mxGeometry x="354" y="30" width="120" height="100" as="geometry" />
        </mxCell>
        <mxCell id="8GNqSrrgOyK67xT2r_T6-5" style="edgeStyle=orthogonalEdgeStyle;rounded=0;orthogonalLoop=1;jettySize=auto;html=1;exitX=0.5;exitY=1;exitDx=0;exitDy=0;entryX=0.5;entryY=0;entryDx=0;entryDy=0;" edge="1" parent="1" source="8GNqSrrgOyK67xT2r_T6-2" target="8GNqSrrgOyK67xT2r_T6-3">
          <mxGeometry relative="1" as="geometry">
            <Array as="points">
              <mxPoint x="417" y="220" />
            </Array>
          </mxGeometry>
        </mxCell>
        <mxCell id="8GNqSrrgOyK67xT2r_T6-2" value="Pedir 100 numeross" style="rounded=0;whiteSpace=wrap;html=1;" vertex="1" parent="1">
          <mxGeometry x="354" y="160" width="120" height="60" as="geometry" />
        </mxCell>
        <mxCell id="8GNqSrrgOyK67xT2r_T6-6" style="edgeStyle=orthogonalEdgeStyle;rounded=0;orthogonalLoop=1;jettySize=auto;html=1;exitX=0.5;exitY=1;exitDx=0;exitDy=0;" edge="1" parent="1" source="8GNqSrrgOyK67xT2r_T6-3">
          <mxGeometry relative="1" as="geometry">
            <mxPoint x="417" y="360" as="targetPoint" />
          </mxGeometry>
        </mxCell>
        <mxCell id="8GNqSrrgOyK67xT2r_T6-3" value="Leer 100 numeros" style="shape=parallelogram;perimeter=parallelogramPerimeter;whiteSpace=wrap;html=1;fixedSize=1;" vertex="1" parent="1">
          <mxGeometry x="354" y="270" width="126" height="60" as="geometry" />
        </mxCell>
        <mxCell id="8GNqSrrgOyK67xT2r_T6-9" style="edgeStyle=orthogonalEdgeStyle;rounded=0;orthogonalLoop=1;jettySize=auto;html=1;exitX=0.5;exitY=1;exitDx=0;exitDy=0;" edge="1" parent="1" source="8GNqSrrgOyK67xT2r_T6-7">
          <mxGeometry relative="1" as="geometry">
            <mxPoint x="414" y="500" as="targetPoint" />
          </mxGeometry>
        </mxCell>
        <mxCell id="8GNqSrrgOyK67xT2r_T6-7" value="Sumar todos los nÃºmeros" style="rounded=0;whiteSpace=wrap;html=1;" vertex="1" parent="1">
          <mxGeometry x="354" y="370" width="120" height="60" as="geometry" />
        </mxCell>
        <mxCell id="8GNqSrrgOyK67xT2r_T6-8" value="Fin" style="ellipse;whiteSpace=wrap;html=1;aspect=fixed;" vertex="1" parent="1">
          <mxGeometry x="374" y="520" width="80" height="80" as="geometry" />
        </mxCell>
      </root>
    </mxGraphModel>
  </diagram>
</mxfile>
